# xmcd
# 
# Track frame offsets:
#	150
#	14986
#	30394
#	39569
#	51460
#	65130
#	77109
#	89333
#	101994
#	121320
#
# Disc length: 1779 seconds
#
# Revision: 1
# Processed by: cddbd v1.4PL0 Copyright (c) Steve Scherf et al.
# Submitted via: Audio-CD-Archiv 2.10.438
#
DISCID=8e06f10a
DTITLE=Andy Williams - The Impossible Dream CD1
DYEAR=1900
DGENRE=blues
TTITLE0=They Long To Be Close To You
TTITLE1=The last Time I Saw Her
TTITLE2=What Now My Love
TTITLE3=I Will Wait For You
TTITLE4=He Ain't Heavy, He's My Brother
TTITLE5=Love Theme From Romeo And Juliet
TTITLE6=Love Is Blue
TTITLE7=A man And A Woman
TTITLE8=Good Morning Starshine
TTITLE9=Somewhere, My Love
EXTD=
EXTT0=
EXTT1=
EXTT2=
EXTT3=
EXTT4=
EXTT5=
EXTT6=
EXTT7=
EXTT8=
EXTT9=
PLAYORDER=
